<svg width="20" height="20" viewBox="0 0 20 20" fill="none" xmlns="http://www.w3.org/2000/svg">
<g opacity="0.9">
<path d="M6.54166 18.9583H4.29166C2.07499 18.9583 1.04166 17.925 1.04166 15.7083V13.4583C1.04166 11.2416 2.07499 10.2083 4.29166 10.2083H6.54166C8.75832 10.2083 9.79166 11.2416 9.79166 13.4583V15.7083C9.79166 17.925 8.75832 18.9583 6.54166 18.9583ZM4.29166 11.4583C2.75832 11.4583 2.29166 11.925 2.29166 13.4583V15.7083C2.29166 17.2416 2.75832 17.7083 4.29166 17.7083H6.54166C8.07499 17.7083 8.54166 17.2416 8.54166 15.7083V13.4583C8.54166 11.925 8.07499 11.4583 6.54166 11.4583H4.29166Z" fill="white"/>
<path d="M12.5 18.9583C12.275 18.9583 12.0667 18.8333 11.9583 18.6417C11.85 18.45 11.85 18.2083 11.9667 18.0167L12.8417 16.5583C13.0167 16.2583 13.4 16.1667 13.7 16.3417C14 16.5167 14.0917 16.9 13.9167 17.2L13.6917 17.575C15.9917 17.0333 17.7167 14.9667 17.7167 12.5C17.7167 12.1583 18 11.875 18.3417 11.875C18.6833 11.875 18.9667 12.1583 18.9667 12.5C18.9583 16.0583 16.0583 18.9583 12.5 18.9583Z" fill="white"/>
<path d="M1.66666 8.12502C1.32499 8.12502 1.04166 7.84169 1.04166 7.50002C1.04166 3.94169 3.94166 1.04169 7.49999 1.04169C7.72499 1.04169 7.93332 1.16669 8.04166 1.35835C8.14999 1.55002 8.14999 1.79169 8.03332 1.98335L7.15832 3.45002C6.98332 3.74169 6.59999 3.84169 6.29999 3.65835C6.00832 3.48335 5.90832 3.10002 6.09166 2.80002L6.31666 2.42502C4.00832 2.96669 2.29166 5.03335 2.29166 7.50002C2.29166 7.84169 2.00832 8.12502 1.66666 8.12502Z" fill="white"/>
<path d="M14.5833 9.79169C12.175 9.79169 10.2083 7.82502 10.2083 5.41669C10.2083 3.00835 12.175 1.04169 14.5833 1.04169C16.9917 1.04169 18.9583 3.00835 18.9583 5.41669C18.9583 7.82502 16.9917 9.79169 14.5833 9.79169ZM14.5833 2.29169C12.8583 2.29169 11.4583 3.69169 11.4583 5.41669C11.4583 7.14169 12.8583 8.54169 14.5833 8.54169C16.3083 8.54169 17.7083 7.14169 17.7083 5.41669C17.7083 3.69169 16.3083 2.29169 14.5833 2.29169Z" fill="white"/>
</g>
</svg>
