<svg width="16" height="18" viewBox="0 0 16 18" fill="none" xmlns="http://www.w3.org/2000/svg">
<g opacity="0.9">
<path d="M5.5 17.125H10.5C10.8452 17.125 11.125 16.8452 11.125 16.5C11.125 16.1548 10.8452 15.875 10.5 15.875H5.5C5.15482 15.875 4.875 16.1548 4.875 16.5C4.875 16.8452 5.15482 17.125 5.5 17.125Z" fill="white"/>
<path fill-rule="evenodd" clip-rule="evenodd" d="M1.76564 7.74994V7.12494C1.76564 7.12494 1.76388 5.87852 2.24159 4.72632C2.24159 4.72632 2.7193 3.57413 3.60311 2.69398C3.60311 2.69398 4.48692 1.81384 5.64109 1.34093C5.64109 1.34093 6.79527 0.868013 8.04255 0.874954C8.04255 0.874954 9.31082 0.88456 10.4657 1.39122C10.4657 1.39122 11.5768 1.87869 12.4322 2.75733C12.4322 2.75733 13.2843 3.63254 13.7515 4.76109C13.7515 4.76109 14.2344 5.92723 14.2344 7.19526V7.74994C14.2344 7.74994 14.2344 10.9919 15.2518 12.7493C15.2518 12.7493 15.4194 13.0395 15.4197 13.3738C15.4197 13.3738 15.42 13.7082 15.2533 13.998C15.2533 13.998 15.0867 14.2879 14.7975 14.4558C14.7975 14.4558 14.5084 14.6238 14.1741 14.6249L1.82814 14.6249C1.82814 14.6249 1.49159 14.6238 1.20248 14.4558C1.20248 14.4558 0.913369 14.2879 0.746706 13.998C0.746706 13.998 0.580042 13.7082 0.580338 13.3738C0.580338 13.3738 0.580635 13.0395 0.747811 12.7499C0.747811 12.7499 1.76564 10.9919 1.76564 7.74994ZM3.01564 7.74994C3.01564 7.74994 3.01564 11.3276 1.83034 13.3749L14.1697 13.3749C14.1697 13.3749 12.9844 11.3271 12.9844 7.74994V7.19526C12.9844 7.19526 12.9844 5.11647 11.5366 3.62928C11.5366 3.62928 10.0872 2.14048 8.0356 2.12493C8.0356 2.12493 7.03808 2.11938 6.11503 2.4976C6.11503 2.4976 5.19198 2.87581 4.48516 3.5797C4.48516 3.5797 3.77833 4.2836 3.39628 5.20507C3.39628 5.20507 3.01423 6.12654 3.01564 7.12494V7.74994Z" fill="white"/>
</g>
</svg>
