<svg width="20" height="20" viewBox="0 0 20 20" fill="none" xmlns="http://www.w3.org/2000/svg">
<g opacity="0.9">
<g opacity="0.9">
<path fill-rule="evenodd" clip-rule="evenodd" d="M10 5.62503C10 5.62503 11.8122 5.62503 13.0936 6.90644C13.0936 6.90644 14.375 8.18785 14.375 10C14.375 10 14.375 11.8122 13.0936 13.0936C13.0936 13.0936 11.8122 14.375 10 14.375C10 14.375 8.18782 14.375 6.90641 13.0936C6.90641 13.0936 5.625 11.8122 5.625 10C5.625 10 5.625 8.18785 6.90641 6.90644C6.90641 6.90644 8.18781 5.62503 10 5.62503ZM10 6.87503C10 6.87503 8.70558 6.87503 7.79029 7.79032C7.79029 7.79032 6.875 8.70561 6.875 10C6.875 10 6.875 11.2944 7.79029 12.2097C7.79029 12.2097 8.70558 13.125 10 13.125C10 13.125 11.2944 13.125 12.2097 12.2097C12.2097 12.2097 13.125 11.2944 13.125 10C13.125 10 13.125 8.70561 12.2097 7.79032C12.2097 7.79032 11.2944 6.87503 10 6.87503Z" fill="white"/>
<path fill-rule="evenodd" clip-rule="evenodd" d="M14.6656 2.86474L14.9393 4.78089C14.9393 4.78089 15.0828 4.91893 15.2192 5.0607L17.1352 5.33441C17.3254 5.36158 17.4926 5.47474 17.5885 5.64125C17.5885 5.64125 18.1525 6.62082 18.4471 7.71211C18.4973 7.89792 18.459 8.09648 18.3435 8.25037L17.1795 9.80001C17.1795 9.80001 17.1858 10.0274 17.182 10.2034L18.3435 11.7496C18.4589 11.9033 18.4972 12.1015 18.4473 12.2871C18.4473 12.2871 18.1539 13.3797 17.5881 14.3594C17.4921 14.5256 17.3252 14.6385 17.1352 14.6656L15.2146 14.94C15.2146 14.94 15.06 15.0988 14.9396 15.2167L14.6656 17.1353C14.6384 17.3255 14.5252 17.4926 14.3587 17.5885C14.3587 17.5885 13.3792 18.1525 12.2879 18.4472C12.1021 18.4973 11.9035 18.4591 11.7496 18.3435L10.2077 17.1853C10.2077 17.1853 9.99997 17.1937 9.79226 17.1853L8.25034 18.3435C8.09667 18.4589 7.89845 18.4972 7.71285 18.4474C7.71285 18.4474 6.62024 18.1539 5.64053 17.5881C5.47439 17.4922 5.36151 17.3252 5.33438 17.1353L5.06016 15.2157C5.06016 15.2157 4.92042 15.0796 4.78427 14.9398L2.86471 14.6656C2.6745 14.6384 2.50735 14.5253 2.41147 14.3588C2.41147 14.3588 1.84743 13.3792 1.55282 12.2879C1.50266 12.1021 1.54091 11.9035 1.6565 11.7496L2.82048 10.2C2.82048 10.2 2.81415 9.97265 2.81792 9.7966L1.6565 8.25037C1.54108 8.0967 1.50277 7.89849 1.55262 7.71288C1.55262 7.71288 1.84609 6.62027 2.41187 5.64056C2.50782 5.47442 2.67477 5.36155 2.86471 5.33441L4.78427 5.06019C4.78427 5.06019 4.92041 4.92044 5.06016 4.7843L5.33438 2.86474C5.36155 2.67453 5.47471 2.50738 5.64122 2.4115C5.64122 2.4115 6.62079 1.84746 7.71208 1.55286C7.89789 1.50269 8.09645 1.54094 8.25034 1.65653L9.79226 2.81472C9.79226 2.81472 9.99998 2.8063 10.2077 2.81472L11.7496 1.65653C11.9033 1.54111 12.1015 1.5028 12.2871 1.55265C12.2871 1.55265 13.3797 1.84611 14.3594 2.4119C14.5256 2.50785 14.6384 2.6748 14.6656 2.86474ZM13.7328 5.17433L13.4722 3.34994C13.4722 3.34994 12.8844 3.04135 12.2508 2.84344L10.7738 3.95286C10.6504 4.04554 10.4971 4.08929 10.3434 4.0757C10.3434 4.0757 9.99998 4.04534 9.65659 4.0757C9.50287 4.08929 9.34956 4.04554 9.22618 3.95286L7.74953 2.8437C7.74953 2.8437 7.1159 3.04225 6.5277 3.35037L6.26713 5.17433C6.24717 5.31409 6.18047 5.44297 6.07791 5.53999C6.07791 5.53999 5.80146 5.80149 5.53995 6.07794C5.44294 6.1805 5.31406 6.2472 5.1743 6.26716L3.34991 6.52779C3.34991 6.52779 3.04132 7.11555 2.84341 7.74921L3.95283 9.22621C4.04548 9.34956 4.08924 9.50282 4.07568 9.6565C4.07568 9.6565 4.05588 9.88095 4.07749 10.3709C4.08388 10.5156 4.03981 10.658 3.95283 10.7738L2.84367 12.2505C2.84367 12.2505 3.04222 12.8841 3.35034 13.4723L5.1743 13.7328C5.31406 13.7528 5.44294 13.8195 5.53995 13.9221C5.53995 13.9221 5.80147 14.1985 6.07791 14.46C6.18047 14.557 6.24717 14.6859 6.26713 14.8257L6.52776 16.6501C6.52776 16.6501 7.11553 16.9587 7.74918 17.1566L9.22618 16.0471C9.34956 15.9545 9.50287 15.9107 9.65659 15.9243C9.65659 15.9243 9.99998 15.9547 10.3434 15.9243C10.4971 15.9107 10.6504 15.9545 10.7738 16.0471L12.2504 17.1563C12.2504 17.1563 12.884 16.9578 13.4722 16.6496L13.7328 14.8257C13.7532 14.683 13.8223 14.5517 13.9284 14.4541C13.9284 14.4541 14.1093 14.2876 14.463 13.9189C14.5597 13.8181 14.6874 13.7526 14.8256 13.7328L16.65 13.4722C16.65 13.4722 16.9586 12.8845 17.1565 12.2508L16.0471 10.7738C15.9545 10.6505 15.9107 10.4972 15.9243 10.3435C15.9243 10.3435 15.9441 10.1191 15.9225 9.62911C15.9161 9.48442 15.9601 9.34201 16.0471 9.22621L17.1563 7.74956C17.1563 7.74956 16.9577 7.11592 16.6496 6.52773L14.8256 6.26716C14.6828 6.24676 14.5515 6.17757 14.4538 6.07133C14.4538 6.07133 14.2058 5.80145 13.9281 5.54566C13.8222 5.44808 13.7532 5.31691 13.7328 5.17433Z" fill="white"/>
</g>
</g>
</svg>
